<svg width="25" height="24" viewBox="0 0 25 24" fill="none" xmlns="http://www.w3.org/2000/svg">
<path opacity="0.3" d="M18.6701 22.2203C18.179 22.215 17.7015 22.0586 17.3025 21.7723C16.9035 21.486 16.6024 21.0838 16.4401 20.6203C16.4401 20.5303 16.4401 20.4403 16.3601 20.4403H8.44008C8.44008 20.5303 8.44008 20.6203 8.36008 20.6203C8.22992 21.0858 7.94945 21.4951 7.56236 21.7845C7.17528 22.0739 6.70334 22.2271 6.22008 22.2203C5.98404 22.2203 5.75766 22.3141 5.59075 22.481C5.42385 22.6479 5.33008 22.8743 5.33008 23.1103C5.33008 23.3464 5.42385 23.5727 5.59075 23.7396C5.75766 23.9065 5.98404 24.0003 6.22008 24.0003H18.6701C18.9061 24.0003 19.1325 23.9065 19.2994 23.7396C19.4663 23.5727 19.5601 23.3464 19.5601 23.1103C19.5601 22.8743 19.4663 22.6479 19.2994 22.481C19.1325 22.3141 18.9061 22.2203 18.6701 22.2203Z" fill="black"/>
<path d="M14.2201 11.5603H16.0001C16.2361 11.5603 16.4625 11.4665 16.6294 11.2996C16.7963 11.1327 16.8901 10.9063 16.8901 10.6703C16.8901 10.4342 16.7963 10.2079 16.6294 10.0409C16.4625 9.87404 16.2361 9.78027 16.0001 9.78027H14.2201C13.984 9.78027 13.7577 9.87404 13.5908 10.0409C13.4238 10.2079 13.3301 10.4342 13.3301 10.6703C13.3301 10.9063 13.4238 11.1327 13.5908 11.2996C13.7577 11.4665 13.984 11.5603 14.2201 11.5603Z" fill="#CDCCCC"/>
<path d="M22.2203 0.000308941H2.67031C2.31819 -0.00508849 1.96857 0.0602862 1.64219 0.192555C1.31582 0.324824 1.01932 0.521293 0.770309 0.770309C0.521293 1.01932 0.324824 1.31582 0.192555 1.64219C0.0602862 1.96857 -0.00508849 2.31819 0.000308941 2.67031V16.0003C-0.00508849 16.3524 0.0602862 16.702 0.192555 17.0284C0.324824 17.3548 0.521293 17.6513 0.770309 17.9003C1.01932 18.1493 1.31582 18.3458 1.64219 18.4781C1.96857 18.6103 2.31819 18.6757 2.67031 18.6703H22.2203C22.5724 18.6757 22.922 18.6103 23.2484 18.4781C23.5748 18.3458 23.8713 18.1493 24.1203 17.9003C24.3693 17.6513 24.5658 17.3548 24.6981 17.0284C24.8303 16.702 24.8957 16.3524 24.8903 16.0003V2.67031C24.8957 2.31819 24.8303 1.96857 24.6981 1.64219C24.5658 1.31582 24.3693 1.01932 24.1203 0.770309C23.8713 0.521293 23.5748 0.324824 23.2484 0.192555C22.922 0.0602862 22.5724 -0.00508849 22.2203 0.000308941ZM19.5603 12.4403C19.5603 12.6741 19.5143 12.9055 19.4248 13.1215C19.3354 13.3374 19.2042 13.5337 19.039 13.699C18.8737 13.8642 18.6774 13.9954 18.4615 14.0848C18.2455 14.1743 18.0141 14.2203 17.7803 14.2203H7.11031C6.63822 14.2203 6.18547 14.0328 5.85166 13.699C5.51784 13.3651 5.33031 12.9124 5.33031 12.4403V8.89031H19.5603V12.4403ZM19.5603 7.11031H5.33031V6.22031C5.33031 5.74822 5.51784 5.29547 5.85166 4.96166C6.18547 4.62784 6.63822 4.44031 7.11031 4.44031H17.7803C18.0141 4.44031 18.2455 4.48635 18.4615 4.5758C18.6774 4.66526 18.8737 4.79637 19.039 4.96166C19.2042 5.12695 19.3354 5.32317 19.4248 5.53913C19.5143 5.75509 19.5603 5.98656 19.5603 6.22031V7.11031Z" fill="#CDCCCC"/>
</svg>
