<svg width="25" height="25" viewBox="0 0 25 25" fill="none" xmlns="http://www.w3.org/2000/svg">
<path fill-rule="evenodd" clip-rule="evenodd" d="M11.0069 2.12621C10.8872 1.63129 10.6349 1.17838 10.2769 0.816214C9.92558 0.462747 9.48769 0.207595 9.00693 0.0762141C8.62727 0.0112402 8.24167 -0.0122313 7.85693 0.00621411H3.23693C2.86507 -0.0107976 2.49251 0.0160541 2.12693 0.0862141C1.63029 0.201476 1.17624 0.454498 0.816932 0.816214C0.45618 1.17781 0.20041 1.63059 0.0769325 2.12621C0.0155272 2.49283 -0.00793007 2.86479 0.00693245 3.23621V7.85621C-0.0141004 8.24138 0.0127718 8.62767 0.0869325 9.00621C0.199921 9.50663 0.453137 9.9645 0.816932 10.3262C1.18492 10.666 1.63731 10.9008 2.12693 11.0062C2.49251 11.0764 2.86507 11.1032 3.23693 11.0862H7.85693C8.2421 11.1072 8.62839 11.0804 9.00693 11.0062C9.5058 10.8892 9.96262 10.6365 10.3269 10.2762C10.6594 9.91863 10.8936 9.48112 11.0069 9.00621C11.077 8.64401 11.1039 8.27475 11.0869 7.90621V3.23621C11.1039 2.86436 11.0771 2.49179 11.0069 2.12621ZM9.23693 7.75621C9.26214 8.01226 9.26214 8.27017 9.23693 8.52621C9.20982 8.70556 9.12972 8.87271 9.00693 9.00621C8.88652 9.12904 8.73409 9.21565 8.56693 9.25621C8.31049 9.27125 8.05338 9.27125 7.79693 9.25621H3.32693C3.07088 9.28142 2.81298 9.28142 2.55693 9.25621C2.39336 9.21394 2.24459 9.12745 2.12693 9.00621C2.00086 8.88833 1.91366 8.73486 1.87693 8.56621C1.85537 8.31 1.85537 8.05243 1.87693 7.79621V3.32621C1.85578 3.06998 1.85578 2.81245 1.87693 2.55621C1.92116 2.39054 2.00725 2.23902 2.12693 2.11621C2.24579 1.99863 2.39445 1.91565 2.55693 1.87621C2.81318 1.85551 3.07068 1.85551 3.32693 1.87621H7.75693C8.01316 1.85506 8.2707 1.85506 8.52693 1.87621C8.70838 1.90954 8.87562 1.99664 9.00693 2.12621C9.12736 2.2445 9.21372 2.39303 9.25693 2.55621C9.27163 2.81267 9.27163 3.06976 9.25693 3.32621L9.23693 7.75621Z" fill="#B3B3B3"/>
<path fill-rule="evenodd" clip-rule="evenodd" d="M23.9269 2.12627C23.8119 1.63477 23.5648 1.18403 23.2124 0.822732C22.8599 0.461435 22.4154 0.203319 21.9269 0.0762699C21.5471 0.0124446 21.1616 -0.0110194 20.7769 0.00626985H16.1569C15.7717 -0.0134561 15.3856 0.013405 15.0069 0.0862698C14.5102 0.201531 14.0562 0.454554 13.6969 0.81627C13.3535 1.18311 13.1151 1.6356 13.0069 2.12627C12.9367 2.49184 12.9098 2.86441 12.9269 3.23627V7.85627C12.9058 8.24144 12.9327 8.62772 13.0069 9.00627C13.1258 9.49049 13.3751 9.9329 13.7276 10.2855C14.0802 10.6381 14.5226 10.8873 15.0069 11.0063C15.3725 11.076 15.745 11.1028 16.1169 11.0863H20.7369C21.122 11.106 21.5081 11.0791 21.8869 11.0063C22.3818 10.8866 22.8347 10.6342 23.1969 10.2763C23.5474 9.92434 23.7992 9.48633 23.9269 9.00627C24.001 8.62772 24.0279 8.24144 24.0069 7.85627V3.23627C24.0239 2.86441 23.997 2.49184 23.9269 2.12627ZM22.1569 7.75627C22.1715 8.01273 22.1715 8.26981 22.1569 8.52627C22.1104 8.69064 22.0225 8.84036 21.9017 8.96114C21.7809 9.08193 21.6312 9.16977 21.4669 9.21627C21.2137 9.23118 20.96 9.23118 20.7069 9.21627H16.2469C15.9942 9.2418 15.7395 9.2418 15.4869 9.21627C15.3097 9.19484 15.1428 9.12181 15.0069 9.00627C14.884 8.88586 14.7974 8.73342 14.7569 8.56627C14.7418 8.30982 14.7418 8.05272 14.7569 7.79627V3.32627C14.7357 3.07004 14.7357 2.8125 14.7569 2.55627C14.8011 2.39059 14.8872 2.23908 15.0069 2.11627C15.1282 1.99666 15.2806 1.91351 15.4469 1.87627C15.6997 1.85484 15.954 1.85484 16.2069 1.87627H20.6469C20.9031 1.85556 21.1606 1.85556 21.4169 1.87627C21.5782 1.92333 21.7251 2.01031 21.844 2.12916C21.9628 2.24802 22.0498 2.39491 22.0969 2.55627C22.118 2.8125 22.118 3.07004 22.0969 3.32627L22.1569 7.75627Z" fill="#CDCCCC"/>
<path fill-rule="evenodd" clip-rule="evenodd" d="M11.0068 15.0062C10.8878 14.522 10.6385 14.0796 10.286 13.727C9.93339 13.3744 9.49098 13.1252 9.00676 13.0062C8.64455 12.9361 8.2753 12.9092 7.90676 12.9262H3.23676C2.8649 12.9092 2.49233 12.9361 2.12676 13.0062C1.63184 13.1259 1.17893 13.3783 0.816758 13.7362C0.461456 14.0845 0.208895 14.5239 0.0867581 15.0062C0.0138933 15.3849 -0.0129679 15.7711 0.00675813 16.1562V20.7762C-0.00775221 21.1476 0.0157028 21.5196 0.0767581 21.8862C0.203807 22.3747 0.461923 22.8192 0.82322 23.1717C1.18452 23.5242 1.63526 23.7713 2.12676 23.8862C2.49074 23.9698 2.86332 24.0101 3.23676 24.0062H7.85676C8.24193 24.0273 8.62821 24.0004 9.00676 23.9262C9.5047 23.8068 9.9609 23.5545 10.3268 23.1962C10.6665 22.8282 10.9013 22.3758 11.0068 21.8862C11.0765 21.5206 11.1033 21.1481 11.0868 20.7762V16.1562C11.1065 15.7711 11.0796 15.3849 11.0068 15.0062ZM9.23676 20.6862C9.25167 20.9393 9.25167 21.1931 9.23676 21.4462C9.19025 21.6106 9.10242 21.7603 8.98163 21.8811C8.86084 22.0019 8.71113 22.0897 8.54676 22.1362C8.2903 22.1509 8.03321 22.1509 7.77676 22.1362H3.32676C3.07053 22.1574 2.81299 22.1574 2.55676 22.1362C2.3954 22.0892 2.2485 22.0022 2.12965 21.8833C2.0108 21.7645 1.92382 21.6176 1.87676 21.4562C1.85605 21.2 1.85605 20.9425 1.87676 20.6862V16.2462C1.85489 15.9934 1.85489 15.7391 1.87676 15.4862C1.90557 15.3033 1.99335 15.1347 2.12676 15.0062C2.24504 14.8858 2.39358 14.7994 2.55676 14.7562C2.81299 14.7351 3.07053 14.7351 3.32676 14.7562H7.75676C8.0132 14.7412 8.27031 14.7412 8.52676 14.7562C8.7082 14.7895 8.87544 14.8766 9.00676 15.0062C9.12637 15.1275 9.20952 15.28 9.24676 15.4462C9.27229 15.6989 9.27229 15.9535 9.24676 16.2062L9.23676 20.6862Z" fill="#B3B3B3"/>
<path fill-rule="evenodd" clip-rule="evenodd" d="M23.9272 15.0063C23.8072 14.5226 23.5576 14.0807 23.2052 13.7283C22.8528 13.3759 22.4109 13.1263 21.9272 13.0063C21.5615 12.9366 21.189 12.9098 20.8172 12.9263H16.1572C15.772 12.9066 15.3859 12.9334 15.0072 13.0063C14.5234 13.1263 14.0816 13.3759 13.7292 13.7283C13.3767 14.0807 13.1271 14.5226 13.0072 15.0063C12.9375 15.3719 12.9106 15.7445 12.9272 16.1163V20.7363C12.9074 21.1215 12.9343 21.5076 13.0072 21.8863C13.1271 22.3701 13.3767 22.8119 13.7292 23.1643C14.0816 23.5167 14.5234 23.7664 15.0072 23.8863C15.3728 23.956 15.7453 23.9829 16.1172 23.9663H20.7372C21.109 23.9829 21.4815 23.956 21.8472 23.8863C22.3438 23.7711 22.7979 23.518 23.1572 23.1563C23.5151 22.7941 23.7675 22.3412 23.8872 21.8463C23.9677 21.4954 24.0079 21.1364 24.0072 20.7763V16.1563C24.0269 15.7712 24 15.385 23.9272 15.0063ZM22.1572 20.6463C22.1715 20.9028 22.1715 21.1598 22.1572 21.4163C22.114 21.5795 22.0276 21.728 21.9072 21.8463C21.7868 21.9691 21.6343 22.0557 21.4672 22.0963C21.2143 22.1177 20.96 22.1177 20.7072 22.0963H16.2472C15.9941 22.1112 15.7403 22.1112 15.4872 22.0963C15.3228 22.0498 15.1731 21.962 15.0523 21.8412C14.9315 21.7204 14.8437 21.5707 14.7972 21.4063C14.7819 21.1532 14.7819 20.8994 14.7972 20.6463V16.2463C14.7757 15.9934 14.7757 15.7392 14.7972 15.4863C14.8437 15.3219 14.9315 15.1722 15.0523 15.0514C15.1731 14.9306 15.3228 14.8428 15.4872 14.7963C15.7403 14.7814 15.9941 14.7814 16.2472 14.7963H20.6872C20.9434 14.7756 21.2009 14.7756 21.4572 14.7963C21.6203 14.8395 21.7689 14.9259 21.8872 15.0463C22.01 15.1667 22.0966 15.3192 22.1372 15.4863C22.1586 15.7392 22.1586 15.9934 22.1372 16.2463L22.1572 20.6463Z" fill="#B3B3B3"/>
</svg>
